<svg aria-hidden="true" style="position: absolute; width: 0; height: 0; overflow: hidden;" version="1.1" xmlns="http://www.w3.org/2000/svg" xmlns:xlink="http://www.w3.org/1999/xlink">
<defs>
<symbol id="icon-credit-card" viewBox="0 0 42 32">
<path d="M36.148 32h-30.556c-3.084 0-5.592-2.498-5.592-5.565v-20.87c0-3.069 2.508-5.565 5.592-5.565h30.555c3.082 0 5.592 2.496 5.592 5.565v20.87c0.001 3.068-2.508 5.565-5.591 5.565zM5.592 1.59c-2.203 0-3.994 1.782-3.994 3.975v20.87c0 2.192 1.791 3.975 3.994 3.975h30.555c2.202 0 3.994-1.783 3.994-3.975v-20.87c0-2.193-1.792-3.975-3.994-3.975h-30.555zM28.805 4.675c1.993 0 3.609 1.607 3.609 3.592s-1.615 3.593-3.609 3.593c-1.994 0-3.609-1.608-3.609-3.593s1.616-3.592 3.609-3.592zM33.837 4.675c1.993 0 3.61 1.607 3.61 3.592s-1.616 3.593-3.61 3.593c-1.994 0-3.609-1.608-3.609-3.593s1.616-3.592 3.609-3.592zM4.294 22.725h6.654v2.385h-6.654v-2.385zM13.127 22.725h6.654v2.385h-6.654v-2.385zM21.958 22.725h6.656v2.385h-6.656v-2.385zM30.79 22.725h6.656v2.385h-6.656v-2.385zM4.294 4.675h12.578v2.385h-12.578v-2.385zM4.294 9.408h6.655v2.385h-6.655v-2.385z"></path>
</symbol>
</defs>
</svg>
