<svg aria-hidden="true" style="position: absolute; width: 0; height: 0; overflow: hidden;" version="1.1" xmlns="http://www.w3.org/2000/svg" xmlns:xlink="http://www.w3.org/1999/xlink">
<defs>
<symbol id="icon-email" viewBox="0 0 40 32">
<path fill="#f1cdb3" style="fill: var(--color1, #f1cdb3)" d="M39.315 3h-38.63c-0.182 0-0.356 0.073-0.484 0.204s-0.201 0.307-0.201 0.492v24.61c0 0.184 0.072 0.361 0.201 0.492s0.303 0.204 0.484 0.204h38.63c0.182 0 0.356-0.073 0.484-0.204s0.201-0.307 0.201-0.492v-24.61c0-0.184-0.072-0.361-0.201-0.492s-0.303-0.204-0.484-0.204zM32.577 18.033c0.107 0.493 0.218 1.002 0.074 1.255-0.155 0.271-0.655 0.429-1.138 0.582-0.381 0.12-0.776 0.245-1.127 0.451-0.34 0.199-0.633 0.479-0.917 0.749-0.391 0.372-0.76 0.724-1.094 0.724s-0.703-0.352-1.094-0.724c-0.284-0.27-0.578-0.55-0.918-0.749-0.352-0.206-0.746-0.331-1.127-0.451-0.483-0.153-0.983-0.31-1.138-0.582-0.144-0.253-0.033-0.762 0.074-1.255 0.088-0.405 0.179-0.823 0.179-1.251s-0.091-0.847-0.179-1.251c-0.107-0.493-0.218-1.002-0.074-1.255 0.155-0.271 0.655-0.429 1.138-0.582 0.381-0.12 0.776-0.245 1.127-0.451 0.34-0.2 0.633-0.479 0.918-0.749 0.391-0.372 0.76-0.724 1.094-0.724s0.703 0.351 1.094 0.724c0.284 0.27 0.578 0.55 0.917 0.749 0.352 0.206 0.746 0.331 1.127 0.451 0.483 0.153 0.983 0.31 1.138 0.582 0.144 0.253 0.033 0.762-0.074 1.255-0.088 0.405-0.179 0.823-0.179 1.251s0.091 0.847 0.179 1.251zM30.598 11.661c-0.063-0.058-0.127-0.119-0.192-0.181-0.515-0.49-1.156-1.1-2.031-1.1s-1.517 0.61-2.031 1.1c-0.238 0.227-0.463 0.441-0.666 0.56-0.219 0.128-0.524 0.225-0.848 0.327-0.701 0.221-1.494 0.472-1.917 1.213-0.411 0.721-0.234 1.534-0.078 2.251 0.075 0.347 0.147 0.675 0.147 0.951s-0.071 0.605-0.147 0.951c-0.135 0.622-0.285 1.316-0.055 1.959l-2.778 2.853-17.675-18.156h35.35l-7.077 7.27zM11.701 16l-10.331 10.612v-21.223l10.331 10.612zM12.664 16.989l6.849 7.035c0.064 0.065 0.14 0.117 0.223 0.153s0.173 0.054 0.264 0.054c0.091 0 0.18-0.018 0.264-0.054s0.16-0.087 0.223-0.153l3.197-3.284c0.36 0.21 0.765 0.338 1.144 0.458 0.324 0.102 0.629 0.199 0.848 0.327 0.203 0.119 0.428 0.334 0.666 0.56 0.515 0.49 1.156 1.1 2.031 1.1s1.516-0.61 2.031-1.1c0.238-0.227 0.463-0.441 0.666-0.56 0.133-0.078 0.297-0.144 0.478-0.206l6.125 6.291h-35.351l10.339-10.62zM32.966 20.795c0.345-0.184 0.656-0.433 0.871-0.81 0.411-0.721 0.234-1.534 0.078-2.251-0.075-0.347-0.147-0.675-0.147-0.951s0.071-0.604 0.147-0.951c0.156-0.717 0.333-1.53-0.078-2.251-0.423-0.742-1.217-0.992-1.917-1.213l-0.064-0.020 6.774-6.959v21.225l-5.664-5.818z"></path>
<path fill="#f1cdb3" style="fill: var(--color1, #f1cdb3)" d="M28.374 13.242c-1.923 0-3.488 1.588-3.488 3.54s1.564 3.54 3.488 3.54 3.487-1.588 3.487-3.54c0-1.952-1.564-3.54-3.487-3.54zM28.374 18.931c-1.168 0-2.118-0.964-2.118-2.149s0.95-2.149 2.118-2.149c1.168 0 2.117 0.964 2.117 2.149s-0.95 2.149-2.117 2.149z"></path>
</symbol>
<symbol id="icon-marker" viewBox="0 0 22 32">
<path fill="#f1cdb3" style="fill: var(--color1, #f1cdb3)" d="M11 0c-6.065 0-11 4.785-11 10.667 0 1.766 0.455 3.516 1.321 5.069l9.078 15.921c0.121 0.212 0.351 0.344 0.601 0.344s0.481-0.131 0.601-0.344l9.081-15.926c0.862-1.547 1.317-3.298 1.317-5.064 0-5.881-4.935-10.667-11-10.667zM19.476 15.091l-8.476 14.865-8.473-14.859c-0.754-1.353-1.152-2.885-1.152-4.43 0-5.146 4.318-9.333 9.625-9.333s9.625 4.187 9.625 9.333c0 1.545-0.398 3.077-1.149 4.424z"></path>
<path fill="#f1cdb3" style="fill: var(--color1, #f1cdb3)" d="M11 5.333c-3.033 0-5.5 2.393-5.5 5.333s2.467 5.333 5.5 5.333c3.033 0 5.5-2.393 5.5-5.333s-2.467-5.333-5.5-5.333zM11 14.667c-2.275 0-4.125-1.794-4.125-4s1.85-4 4.125-4c2.275 0 4.125 1.794 4.125 4s-1.85 4-4.125 4z"></path>
</symbol>
<symbol id="icon-phone" viewBox="0 0 40 32">
<path fill="#f1cdb3" style="fill: var(--color1, #f1cdb3)" d="M39.946 8.895l-2.436-5.991c-0.042-0.102-0.106-0.194-0.188-0.266s-0.179-0.125-0.284-0.153l-2.928-0.778c-8.572-2.277-19.65-2.277-28.222 0l-2.928 0.778c-0.105 0.028-0.202 0.080-0.284 0.153s-0.146 0.164-0.188 0.266l-2.436 5.991c-0.067 0.165-0.072 0.35-0.013 0.518l0.974 2.796c0.057 0.162 0.168 0.299 0.315 0.384s0.318 0.113 0.483 0.079l9.256-1.897c0.139-0.028 0.267-0.1 0.366-0.204s0.165-0.237 0.188-0.381l0.802-4.864c4.412-1.136 10.739-1.136 15.151 0l0.802 4.864c0.024 0.143 0.089 0.276 0.188 0.381s0.226 0.176 0.366 0.204l9.256 1.897c0.165 0.034 0.336 0.006 0.483-0.079s0.258-0.221 0.315-0.383l0.974-2.796c0.059-0.168 0.054-0.353-0.013-0.518zM2.132 11.141l-0.5-1.435 8.965-1.92-0.276 1.677-8.189 1.678zM11.622 4.057c-0.129 0.036-0.245 0.11-0.334 0.211s-0.149 0.227-0.171 0.362l-0.269 1.635-8.988 1.925 1.79-4.403 2.591-0.688c8.358-2.22 19.16-2.221 27.518 0l2.591 0.688 1.79 4.403-8.988-1.925-0.269-1.635c-0.022-0.135-0.081-0.26-0.171-0.362s-0.205-0.175-0.334-0.211c-4.776-1.351-11.98-1.351-16.756 0zM37.868 11.141l-8.189-1.678-0.276-1.677 8.965 1.92-0.5 1.435z"></path>
<path fill="#f1cdb3" style="fill: var(--color1, #f1cdb3)" d="M33.29 13.119c-0.029-0.134-0.095-0.257-0.191-0.354s-0.216-0.164-0.347-0.193l-4.775-1.046-0.601-4.012c-0.025-0.17-0.109-0.324-0.236-0.436s-0.289-0.173-0.457-0.173h-1.869v-0.941c0-0.397-0.314-0.718-0.701-0.718s-0.701 0.322-0.701 0.718v0.941h-6.824v-0.941c0-0.397-0.314-0.718-0.701-0.718s-0.701 0.322-0.701 0.718v0.941h-1.87c-0.168 0-0.329 0.061-0.457 0.173s-0.211 0.266-0.236 0.436l-0.601 4.012-4.774 1.046c-0.131 0.029-0.252 0.096-0.347 0.193s-0.162 0.22-0.191 0.354l-3.242 14.969c-0.011 0.051-0.017 0.103-0.017 0.156v3.038c0 0.191 0.074 0.373 0.205 0.508s0.31 0.21 0.496 0.21h31.695c0.186 0 0.364-0.076 0.496-0.21s0.205-0.317 0.205-0.508v-3.038c0-0.052-0.006-0.105-0.017-0.156l-3.242-14.969zM7.981 13.88l4.807-1.053c0.139-0.030 0.266-0.104 0.364-0.21s0.161-0.24 0.183-0.384l0.583-3.892h12.164l0.583 3.892c0.022 0.144 0.085 0.278 0.183 0.384s0.224 0.179 0.363 0.21l4.807 1.053 2.955 13.645h-29.948l2.955-13.645zM11.797 28.962l-0.903 1.601h-1.066l0.903-1.601h1.066zM13.416 28.962h15.256l-0.903 1.601h-15.256l0.903-1.601zM4.853 28.962h4.258l-0.903 1.601h-3.355v-1.601zM29.389 30.563l0.903-1.601h4.855v1.601h-5.758z"></path>
<path fill="#f1cdb3" style="fill: var(--color1, #f1cdb3)" d="M20 26.161c4.149 0 7.525-3.459 7.525-7.711s-3.376-7.711-7.525-7.711c-4.149 0-7.525 3.459-7.525 7.711s3.376 7.711 7.525 7.711zM20 12.176c3.376 0 6.123 2.814 6.123 6.274s-2.747 6.274-6.123 6.274c-3.376 0-6.123-2.814-6.123-6.274s2.747-6.274 6.123-6.274z"></path>
<path fill="#f1cdb3" style="fill: var(--color1, #f1cdb3)" d="M20 21.185c1.472 0 2.669-1.227 2.669-2.735s-1.197-2.735-2.669-2.735c-1.472 0-2.669 1.227-2.669 2.735s1.197 2.735 2.669 2.735zM20 17.151c0.699 0 1.267 0.582 1.267 1.298s-0.568 1.298-1.267 1.298c-0.699 0-1.267-0.582-1.267-1.298s0.568-1.298 1.267-1.298z"></path>
</symbol>
</defs>
</svg>

